<?xml version="1.0" encoding="UTF-8" standalone="no"?>
<svg
   width="3200"
   height="891"
   viewBox="0 0 3200 891"
   fill="none"
   version="1.1"
   id="svg1"
   sodipodi:docname="gold-logo.svg"
   inkscape:version="1.4.2 (unknown)"
   xmlns:inkscape="http://www.inkscape.org/namespaces/inkscape"
   xmlns:sodipodi="http://sodipodi.sourceforge.net/DTD/sodipodi-0.dtd"
   xmlns="http://www.w3.org/2000/svg"
   xmlns:svg="http://www.w3.org/2000/svg">
  <path
     style="font-weight:800;font-size:533.333px;font-family:Epilogue;-inkscape-font-specification:'Epilogue Ultra-Bold';letter-spacing:-40px;fill:#ffffff"
     d="m 1231.8082,282.27134 h 160.5332 v 393.33309 h -90.3999 V 335.33797 l 1.6,1.06667 -68.8,339.19979 h -122.6666 l -70.3999,-339.99979 1.6,-0.8 V 675.60443 H 952.87501 V 282.27134 h 160.53319 l 63.2,353.06645 h -8.8 z m 185.3332,393.33309 V 282.27134 h 166.9332 q 64.5333,0 95.7333,29.06665 31.4666,28.79998 31.4666,81.59995 0,30.39998 -11.4667,51.7333 -11.4666,21.06665 -28.5333,32.79998 -17.0666,11.46666 -33.3333,12.79999 16.8,1.06667 31.4667,8.26666 14.9333,6.93333 24,22.66666 9.3333,15.46665 9.3333,41.59997 0,18.13332 0,35.19998 0,16.79999 0,34.93331 0,13.59999 2.1333,25.59998 2.1333,11.73333 6.4,17.06666 h -95.1999 q -3.7334,-6.13333 -6.1334,-17.59999 -2.1333,-11.46666 -2.1333,-25.06665 0,-15.99999 0,-29.59998 0,-13.59999 0,-29.59998 0,-22.13332 -10.6667,-34.66665 -10.4,-12.53332 -35.4666,-12.53332 h -76.5333 l 25.0667,-29.59999 v 178.66656 z m 93.0666,-187.19988 -25.0667,-33.86665 h 77.6 q 14.6666,0 26.1333,-6.4 11.4666,-6.39999 17.8666,-18.13332 6.6667,-11.99999 6.6667,-27.99998 0,-21.33332 -13.8667,-34.66665 -13.6,-13.33332 -37.8666,-13.33332 h -78.9333 l 27.4667,-29.59998 z m 309.8668,187.19988 h -95.4666 V 282.27134 h 142.6666 q 45.0666,0 77.5999,17.59999 32.8,17.59999 50.4,47.99997 17.8666,30.13331 17.8666,67.99996 0,37.86664 -17.8666,69.06662 -17.8667,31.19998 -50.6667,49.86664 -32.5333,18.66665 -77.3332,18.66665 h -47.2 z m 0,-150.39991 -42.9333,-43.46664 h 80.2666 q 17.0667,0 30.4,-7.46666 13.6,-7.73333 21.3333,-22.39999 8,-14.66665 8,-35.99997 0,-21.59999 -7.7333,-35.19998 -7.7334,-13.59999 -21.3334,-19.99999 -13.3333,-6.4 -30.6666,-6.4 h -80.2666 l 42.9333,-43.99997 z m 456.2661,157.06657 q -47.4667,0 -86.6666,-22.93332 -38.9333,-23.19998 -61.8667,-67.99995 -22.9333,-45.06664 -22.9333,-111.19994 0,-65.86662 24.2667,-111.46659 24.5333,-45.59998 65.5999,-69.06663 41.3333,-23.73332 92,-23.73332 42.6666,0 72.2666,13.59999 29.8666,13.33333 48.2666,34.39998 18.6667,21.06666 26.9334,44.26664 8.5333,23.19999 8.5333,42.39998 0,0.8 0,1.6 0,0.79999 0,1.59999 h -92.5333 q 0,-0.8 0,-1.59999 0,-0.8 0,-1.6 0,-11.2 -4.2667,-21.86666 -4,-10.66666 -12.2666,-19.19999 -8.2667,-8.53332 -20,-13.59999 -11.7333,-5.06666 -26.9333,-5.06666 -20.5333,0 -40.2667,11.99999 -19.4666,11.73333 -32.2666,39.99998 -12.5333,27.99998 -12.5333,77.33328 0,37.33331 7.2,62.1333 7.2,24.53332 18.9333,38.93331 12,14.39999 26.9333,20.53332 14.9333,5.86666 30.4,5.86666 21.6,0 36.5333,-7.19999 15.2,-7.2 24,-17.86666 8.8,-10.66666 11.2,-20.79999 v -20.26665 h -71.7333 v -67.19996 h 155.9999 v 201.33321 h -46.9333 l -9.0667,-43.46664 q -1.8666,5.33333 -9.0666,13.86666 -6.9334,8.53333 -19.7334,16.79999 -12.8,8.26666 -32.7999,13.86666 -19.7334,5.59999 -47.2,5.59999 z m 331.1996,-0.26666 q -46.9333,0 -82.6666,-18.66666 -35.4667,-18.93332 -55.7333,-52.26663 -20,-33.33332 -20,-76.79996 0,-43.7333 20,-76.79995 20.2666,-33.33331 55.7333,-51.99997 35.7333,-18.66665 82.6666,-18.66665 46.9333,0 82.4,18.66665 35.7333,18.66666 55.7333,51.99997 20.2666,33.06665 20.2666,76.79995 0,43.46664 -20.2666,76.79996 -20,33.33331 -55.7333,52.26663 -35.4667,18.66666 -82.4,18.66666 z m 0,-73.33329 q 19.2,0 33.0667,-9.33333 13.8666,-9.33333 21.3333,-25.86665 7.4666,-16.79999 7.4666,-39.19998 0,-22.66665 -7.4666,-39.19997 -7.4667,-16.53333 -21.3333,-25.59999 -13.8667,-9.06666 -33.0667,-9.06666 -18.9333,0 -33.0666,9.06666 -13.8667,9.06666 -21.3334,25.59999 -7.4666,16.53332 -7.4666,39.19997 0,22.39999 7.4666,39.19998 7.4667,16.53332 21.3334,25.86665 14.1333,9.33333 33.0666,9.33333 z m 261.0666,-349.86645 v 416.79974 h -93.5999 V 258.80469 Z m 138.933,423.4664 q -35.4666,0 -65.8666,-16.79999 -30.1333,-17.06665 -48.5333,-50.39997 -18.4,-33.33331 -18.4,-82.66661 0,-46.93331 18.9333,-79.46662 18.9334,-32.53331 49.3333,-49.3333 30.4,-16.79999 64.5333,-16.79999 33.8667,0 61.6,17.59999 27.7333,17.33332 44.2666,47.46663 16.5334,30.13332 16.5334,69.06663 0,1.33333 0,2.66666 0,1.33334 0,2.93334 l -36.8,0.26666 q 0,-0.8 0,-1.6 0,-1.06666 0,-1.86666 0,-18.93332 -9.0667,-31.73332 -8.8,-13.06666 -22.4,-19.73332 -13.6,-6.93333 -28.2666,-6.93333 -23.7333,0 -42.1333,15.99999 -18.4,15.73333 -18.4,51.46664 0,35.73331 18.4,52.26663 18.4,16.53333 42.1333,16.53333 15.2,0 28.8,-7.2 13.6,-7.19999 22.1333,-20.53332 8.8,-13.59999 8.8,-32.26665 l 36.8,2.13334 q 0,38.66664 -16.5334,70.13329 -16.2666,31.46664 -43.9999,50.1333 -27.7334,18.66665 -61.8667,18.66665 z m 85.6,-6.66666 V 258.80469 h 95.1999 v 416.79974 z"
     id="text4"
     aria-label="MRP Gold" />
  <defs
     id="defs1">
    <rect
       x="902.22681"
       y="130.63918"
       width="2000.4124"
       height="587.87628"
       id="rect3" />
    <rect
       x="1306.3918"
       y="253.1134"
       width="24.494844"
       height="20.412371"
       id="rect2" />
    <rect
       x="906.30927"
       y="53.072166"
       width="2004.4948"
       height="677.69073"
       id="rect1" />
  </defs>
  <sodipodi:namedview
     id="namedview1"
     pagecolor="#000000"
     bordercolor="#000000"
     borderopacity="0.25"
     inkscape:showpageshadow="2"
     inkscape:pageopacity="0.0"
     inkscape:pagecheckerboard="0"
     inkscape:deskcolor="#d1d1d1"
     inkscape:zoom="0.3464109"
     inkscape:cx="1597.8135"
     inkscape:cy="252.5902"
     inkscape:window-width="1920"
     inkscape:window-height="1057"
     inkscape:window-x="0"
     inkscape:window-y="23"
     inkscape:window-maximized="1"
     inkscape:current-layer="svg1" />
  <path
     d="M 95.8889,668.445 0,56.5918 263.694,334.707 431.5,0.96875 599.306,334.707 863,56.5918 767.111,668.445 Z M 767.111,835.314 c 0,33.374 -19.178,55.624 -47.944,55.624 H 143.833 c -28.766,0 -47.9441,-22.25 -47.9441,-55.624 V 779.691 H 767.111 Z"
     fill="#fde047"
     id="path1" />
</svg>
