<svg width="14" height="14" viewBox="0 0 14 14" fill="none" xmlns="http://www.w3.org/2000/svg">
<path d="M8.79688 10.3793C9.07765 10.6564 9.41343 10.8522 9.77441 10.9642L8.06543 12.6517C7.48994 13.2197 6.55108 13.2197 5.97559 12.6517L4.20703 10.9056C4.52433 10.7895 4.81941 10.6083 5.07031 10.3607L6.92383 8.53162L8.79688 10.3793Z" stroke="#6C6C6C"/>
<path d="M5.95605 1.67578C6.53149 1.10786 7.47033 1.10794 8.0459 1.67578L9.75488 3.3623C9.39387 3.47431 9.05815 3.67111 8.77734 3.94824L6.9043 5.79492L5.05176 3.9668C4.80069 3.71901 4.50505 3.5371 4.1875 3.4209L5.95605 1.67578Z" stroke="#6C6C6C"/>
<path d="M10.4766 4.78491H11.2354L12.5713 6.10425C13.1429 6.66863 13.1431 7.58389 12.5713 8.14819L11.2354 9.46655H10.4766C10.2536 9.46648 10.0359 9.38024 9.88477 9.2312L7.9209 7.29272C7.85661 7.22929 7.78637 7.17396 7.71289 7.12573C7.78661 7.07697 7.85724 7.02252 7.9209 6.95972V6.95874L9.88477 5.02124C10.0359 4.87209 10.2535 4.78499 10.4766 4.78491ZM3.37109 4.80347C3.59418 4.80347 3.81264 4.89056 3.96387 5.03979L5.9082 6.95874C5.96986 7.01959 6.03823 7.07317 6.10938 7.12085C6.035 7.16772 5.96471 7.22195 5.89941 7.28296L5.88965 7.29272L3.94434 9.21167C3.79317 9.36086 3.57555 9.44793 3.35254 9.448H2.74805L1.41211 8.12866L1.40723 8.12476L1.3125 8.02222C0.867892 7.4918 0.889928 6.65743 1.43164 6.1228L2.76855 4.80347H3.37109Z" stroke="#6C6C6C"/>
</svg>
